<svg xmlns="http://www.w3.org/2000/svg" version="1.1" xmlns:xlink="http://www.w3.org/1999/xlink" id="Livello_1" x="0px" y="0px" width="512px" height="512px" viewBox="0 0 512 512" enable-background="new 0 0 512 512" xml:space="preserve"><metadata><rdf:RDF xmlns:rdf="http://www.w3.org/1999/02/22-rdf-syntax-ns#" xmlns:dc="http://purl.org/dc/elements/1.1/"><rdf:Description><dc:creator>RealFaviconGenerator</dc:creator><dc:source>https://realfavicongenerator.net</dc:source></rdf:Description></rdf:RDF></metadata><g>
	<path fill="#0E512F" d="M274.37,458.65c-0.27-1.42-0.77-4.04-1.48-8.23c1.52-0.06,2.77-0.08,4.29-0.04
		C275.93,454.52,275.03,456.9,274.37,458.65 M274.37,458.65c-2.06-2.21-3.96-4.38-6.59-7.8c1.38-0.15,2.48-0.29,4.48-0.38
		C273.32,454.71,273.91,456.88,274.37,458.65 M271.89,442.8c-0.08,0.02-0.15,0.02-0.23,0.04c-0.83-5.44-1.71-11.53-2.59-18.12
		c4.94-0.38,8.98-0.56,13.95-0.63c-1.46,8.61-2.61,13.7-3.61,17.95C278.47,442.08,275.62,442.24,271.89,442.8 M263.46,444.54
		c-0.06,0.02-0.12,0.04-0.17,0.04c-2.65-3.94-6-9.15-10.69-17.8c4.57-0.79,8.69-1.35,13.78-1.85c0.96,4.48,2.06,9.53,4.07,18.09
		C266.82,443.68,264.7,444.22,263.46,444.54 M268.3,414.7c-0.15,0.02-0.37,0.04-0.52,0.08c-0.38-3.04-1.42-11.3-2.71-22.51
		c7.9-0.67,14.32-1,22.16-1.13c-0.81,8.44-1.58,15.05-2.54,22.14C282.62,413.37,276.33,413.64,268.3,414.7 M248.62,418.29
		c-0.1,0.02-0.25,0.06-0.35,0.08c-3.59-7.3-6.63-14.03-10.15-22.53c6.42-1.19,13.72-2.23,21.68-3.09c1.1,5.59,2.46,12.53,4.52,22.49
		C262.07,415.6,256.04,416.54,248.62,418.29 M264.46,380.27c-0.23,0.02-0.52,0.06-0.75,0.1c-0.02-0.15-2.11-19.37-2.83-26
		c10.22-0.88,18.6-1.33,28.89-1.56c-0.54,12.01-1.23,21.83-1.5,25.49C285.35,378.43,276.41,378.79,264.46,380.27 M234.53,385.52
		c-0.15,0.04-0.35,0.08-0.48,0.12c-3.19-8.36-6.36-17.22-9.42-26.35c8.48-1.54,16.51-2.81,28.18-4.11
		c2.29,13.03,3.61,19.95,4.77,26.04C249.39,382.45,241.62,383.89,234.53,385.52 M260.42,340.87c-0.29,0.04-0.65,0.08-0.94,0.12
		c-1.5-14.59-1.5-14.59-2.9-28.6c12.3-1.06,22.22-1.61,34.25-1.9c-0.1,11.45-0.23,18.78-0.5,27.96
		C286.6,338.61,275.26,339.09,260.42,340.87 M221.48,347.52c-0.17,0.04-0.4,0.1-0.58,0.13c-3.65-11.8-6.02-20.24-8.46-29.25
		c7.67-1.38,17.22-3.09,33.29-4.92c0.96,5.92,2.15,13.3,4.79,28.69C240.12,343.72,230.34,345.53,221.48,347.52 M256.25,297.78
		c-0.33,0.04-0.77,0.1-1.1,0.13c-1.06-10.86-1.4-14.53-2.9-30.31c13.34-1.17,24.35-1.81,38.04-2.15c0.29,11.05,0.44,19.62,0.52,29.6
		C286.52,295.21,273.49,295.75,256.25,297.78 M209.79,305.59c-0.19,0.04-0.44,0.1-0.62,0.13c-2.65-10.63-4.77-19.68-7.27-31.25
		c15.76-2.92,28-4.5,36.92-5.52c1.6,10.76,2.86,19.03,4.67,30.48C227.32,301.82,215.45,304.32,209.79,305.59 M252.02,252.33
		c-0.37,0.04-0.83,0.1-1.19,0.13c-0.58-6.23-2.44-25.74-2.96-31.16c14.32-1.27,26.06-1.94,40.48-2.33c0.56,10.32,1,19.7,1.42,30.37
		C285.06,249.56,270.7,250.16,252.02,252.33 M199.8,261c-0.19,0.04-0.44,0.1-0.63,0.13c-2.25-11.32-3.98-20.68-5.92-32.33
		c13.38-2.48,25.12-4.25,39.23-5.9c1.36,10.63,2.63,20.03,4.25,31.4C231.46,255.08,217.5,257.13,199.8,261 M34.2,317.62
		c0.6-25.22,38.79-62.83,144.45-85.89c2.5,12.4,4.19,19.99,7.25,32.52C91.94,287.96,52.16,327.36,54.38,355.9
		c3.38-31.39,55.05-61.6,134.81-78.88c3.25,12.05,5.46,19.66,9.05,31.29c-72.73,18.37-118.34,50.57-116.2,82.05
		c2.33-21.85,35.1-51.7,120.1-69.92c4.34,13.05,7.84,22.45,10.4,29.19c-70.57,17.99-99.19,47.13-96.23,68.02
		c4.57-23.03,43.13-44.82,100.63-56.85c4.27,10.53,6.94,16.64,11.4,26.22c-47.65,12.24-75.48,32.5-72.59,52.87
		c4.09-17.91,33-34.02,77.32-43.07c4.94,9.84,8.13,15.66,12.01,22.35c-38.96,10.38-48.43,26.06-45.3,34.06
		c2.83-6.55,13.11-18.64,50.2-25.97C261,444.62,261,444.62,261.13,445.2c-14.72,4.63-17.74,11.05-14.24,13.92
		c14.43-13.61,21.47-6.52,26.62-1.33l0.86,0.85c3.63-8.09,3.63-8.09,3.71-8.25c0.44,0.02,1.04,0.06,1.48,0.1
		c1.56-2.69,3.08-5.55,4.57-8.59c-1,0.02-2.33,0.04-3.32,0.08h-0.02h-0.02h-0.02h-0.02h-0.02h-0.02h-0.02h-0.02
		c2.04-6.5,3.21-10.67,5.02-17.89c0.02,0,0.06,0,0.08,0c2.61,0.04,3.34,0.06,5.94,0.15c1.35-3.57,2.65-7.28,3.92-11.15
		c-3.32-0.02-4.09-0.02-7.42,0.06c1.48-6.92,2.63-12.74,4.25-22.06c4.23,0.04,5.4,0.06,9.55,0.21c1.11-4.31,2.19-8.71,3.23-13.22
		c-4.79-0.06-5.88-0.04-10.71,0.04c1.42-9.51,2.23-15.68,3.32-25.37c4.73,0.02,7.76,0.1,12.44,0.27c0.86-4.86,1.67-9.82,2.44-14.84
		c-5.09-0.08-8.21-0.08-13.34,0.02c1.31-13.74,1.83-21.22,2.29-27.81c5.61,0.04,9.19,0.1,14.68,0.31c0.6-5.27,1.11-10.59,1.6-15.97
		c-5.82-0.1-9.42-0.1-15.32-0.02c0.58-11.4,0.85-18.55,1.13-29.41c6.17,0.04,10.13,0.12,16.24,0.33c0.29-5.52,0.52-11.05,0.69-16.62
		c-6.28-0.1-10.32-0.12-16.66-0.02c0.08-11.45,0.04-18.51-0.19-30.16c6.59,0.04,10.78,0.12,17.24,0.35
		c-0.04-5.59-0.13-11.21-0.29-16.8c-6.65-0.12-10.72-0.13-17.43-0.06c-0.12-2.98-0.23-5.96-0.37-8.94
		c-5.42,0.02-10.86,0.13-16.3,0.31c0.23,3.02,0.44,6.03,0.65,9.05c-15.38,0.71-25.33,1.5-40.9,3.23c-0.29-3.15-0.58-6.32-0.88-9.48
		c-5.4,0.56-10.8,1.19-16.16,1.88c0.38,3.23,0.79,6.44,1.19,9.65c-6.82,1.02-21.03,3.13-39.52,7.13c-0.65-4.36-0.86-5.9-1.48-10.21
		c-5.13,1.04-10.22,2.13-15.24,3.31c0.69,4.13,0.96,5.69,1.81,10.38C87.9,240.89,33.49,278.83,34.2,317.62 M472.85,198.48
		c-0.06-0.06-0.06-0.06-1.71-11.76c-0.96-6.78-2.02-11.8-2.52-14.22c0-0.04-0.02-0.08-0.02-0.13c0-0.04-0.02-0.08-0.02-0.13
		c0-0.04-0.02-0.08-0.02-0.13c0-0.04-0.02-0.08-0.02-0.13c0-0.04-0.02-0.08-0.02-0.13c0-0.04-0.02-0.08-0.02-0.13
		c0-0.04-0.02-0.08-0.02-0.13c0-0.04-0.02-0.08-0.02-0.13c4.67,4.73,7.57,8.74,10.01,13.9c0.02,0.04,0.02,0.1,0.04,0.13
		c0.02,0.04,0.02,0.1,0.04,0.13c0.02,0.04,0.02,0.1,0.04,0.13c0.02,0.04,0.02,0.1,0.04,0.13c0.02,0.04,0.02,0.1,0.04,0.13
		c0.02,0.04,0.02,0.1,0.04,0.13c0.02,0.04,0.02,0.1,0.04,0.13c0.02,0.04,0.02,0.1,0.04,0.13c1.96,9.05,3.11,16.57,3.98,25.89
		C481.83,210.58,479.27,205.05,472.85,198.48 M447.21,180.89c-0.21-0.1-0.5-0.25-0.71-0.35c-0.81-9.28-1.86-16.68-3.59-25.58
		c0-0.04-0.02-0.1-0.02-0.13c0-0.04-0.02-0.1-0.02-0.13c-0.02-0.04-0.02-0.1-0.04-0.13c0-0.04-0.02-0.1-0.04-0.13
		c-0.02-0.04-0.02-0.1-0.04-0.13c-0.02-0.04-0.02-0.1-0.04-0.13c-0.02-0.04-0.02-0.1-0.04-0.13c-0.02-0.04-0.02-0.1-0.04-0.13
		c7.9,3.96,13.49,7.42,19.33,11.97c0,0.04,0.02,0.1,0.02,0.13s0.02,0.1,0.02,0.13s0.02,0.1,0.02,0.13s0.02,0.1,0.02,0.13
		s0.02,0.1,0.02,0.13s0.02,0.1,0.02,0.13s0.02,0.08,0.02,0.13c0,0.04,0.02,0.08,0.02,0.13c1.9,8.96,3.04,16.39,3.92,25.68
		C464.13,190.96,457.96,186.16,447.21,180.89 M408.93,167.19c-0.29-0.08-0.69-0.17-0.98-0.25c-0.33-3.9-1.23-14.28-3.54-26.85
		c10.84,2.86,18.95,5.52,27.98,9.15c0.94,4.32,2.73,13.57,4.04,26.85C433.26,174.82,423.67,170.99,408.93,167.19 M484.98,219.23
		c-0.9-3.92-0.86-7.94-1.42-11.9c-0.98-6.84-2.09-11.95-2.61-14.41c-0.02-0.06-0.02-0.1-0.04-0.15c-0.02-0.06-0.02-0.1-0.04-0.15
		c-0.02-0.06-0.02-0.1-0.04-0.15c-0.02-0.06-0.02-0.1-0.04-0.15c-0.02-0.06-0.02-0.1-0.04-0.15c-0.02-0.06-0.02-0.1-0.04-0.15
		c-0.02-0.06-0.02-0.1-0.04-0.15c-0.02-0.06-0.02-0.1-0.04-0.15c0.04,0.17,0.1,0.38,0.13,0.56c1.77,8.73,3.5,20.47,4.73,29.27
		l0.23,2.42C485.67,223.27,485.5,221.5,484.98,219.23 M359.11,158.58c-0.42-0.04-1-0.1-1.42-0.15c-1.04-12.15-1.83-17.59-3.23-27.45
		c8.67,1.04,20.58,2.63,36.04,5.82c1.06,5.77,2.5,13.68,3.84,27.06C389.33,162.84,377.6,160.48,359.11,158.58 M464.34,155.14
		c-0.13-0.13-0.13-0.13-2.98-8c-2.79-7.71-5.42-13.4-6.69-16.13c3.02,3.08,6.48,6.98,9.24,12.68l1.5,3.21
		c3.36,7.42,5.88,13.9,8.4,21.66C473.03,166.82,470.53,161.48,464.34,155.14 M439.28,137.86c-0.21-0.1-0.48-0.23-0.69-0.33
		c-2.5-8.42-4.96-15.18-8.5-23.35c12.44,6.23,18.32,11.3,18.35,11.34c0.02,0.04,4.65,9.48,9.13,23.62
		C455.61,147.6,449.66,142.99,439.28,137.86 M401.84,124.4c-0.29-0.08-0.65-0.17-0.94-0.25c-2.17-8.38-4.31-15.09-7.34-23.14
		c10.26,2.71,17.95,5.21,26.54,8.67c2.5,5.92,5.23,12.86,8.28,23.31C425.36,131.78,416.16,128.11,401.84,124.4 M353.06,115.89
		c-0.42-0.04-0.96-0.1-1.38-0.13c-1.77-8.5-3.48-15.28-5.86-23.41c4.4,0.52,17.78,2.08,34.19,5.5c2.09,5.84,4.4,12.68,7.05,23.16
		C381.31,119.87,370.59,117.73,353.06,115.89 M447.33,116.72c-2.69-2.77-4.02-6.4-6.11-9.55c-3.61-5.42-6.65-9.32-8.11-11.21
		c1.42,1.44,2.25,2.34,3.81,4.25l6.75,9.03c3.4,4.82,7.51,11.53,10.71,16.49C453.67,124.58,451.56,121.04,447.33,116.72
		 M423.84,100.47c-0.19-0.1-0.44-0.21-0.63-0.31c-4.06-7.3-7.69-12.99-12.55-19.58c15.95,7.98,17.61,8.8,30.23,30.42
		C439.07,109.59,433.53,105.28,423.84,100.47 M388.69,87.81c-0.27-0.08-0.62-0.15-0.88-0.23c-3.42-7.13-6.48-12.65-10.57-19.03
		c15.51,4.09,24.12,7.86,24.14,7.88c0.02,0.02,5.52,7.21,12.09,19.43C410.62,94.71,401.99,91.27,388.69,87.81 M342.91,79.76
		c-0.38-0.04-0.9-0.1-1.29-0.13c-2.65-7.23-4.98-12.72-8.03-18.99c11.09,1.29,20.68,2.83,31.1,4.96c3.81,6.28,6.69,11.78,9.94,18.97
		C369.64,83.58,359.21,81.51,342.91,79.76 M422.9,84c-1.35-1.38-2.67-2.81-4.04-4.17l4.67,4.84C423.34,84.47,423.09,84.2,422.9,84
		 M401.88,69.42c-0.17-0.08-0.4-0.19-0.58-0.29c-5.36-5.92-10.01-10.4-16.03-15.43c6.88,3.44,15.43,7.73,31.81,25.12
		C415.44,77.55,410.49,73.7,401.88,69.42 M370.37,58.04c-0.23-0.06-0.56-0.13-0.79-0.21c-4.48-5.65-8.36-9.88-13.34-14.57
		c21.97,5.79,21.97,5.79,36.21,21.95C389.94,64.21,382.21,61.13,370.37,58.04 M329.36,50.79c-0.35-0.04-0.81-0.08-1.15-0.12
		c-3.32-5.57-6.19-9.71-9.86-14.24c16.34,1.9,26.87,4.27,26.91,4.27c0.02,0.02,5.5,5.13,12.4,14.41
		C351.33,53.83,342.41,52.2,329.36,50.79 M357.29,35.38c-0.02,0-0.02-0.02-0.04-0.02c9.11,4.56,9.11,4.56,26.06,15.15
		c-3.08-2.04-5.73-3.56-9.48-5.42C369.8,42.37,364.67,39.11,357.29,35.38 M332.3,26.25c-0.31-0.15-0.71-0.37-1.02-0.52
		c11.32,2.96,18.82,4.9,35.02,16.01c-6.25-2.48-11.84-4.29-19.32-6.25C344.99,34.01,339.64,30.07,332.3,26.25 M301.26,20.69
		c-0.21-0.15-0.52-0.33-0.73-0.48c23.29,2.67,23.29,2.67,36.27,12.93c-6.09-1.23-13.32-2.54-24.85-3.77
		C310.49,27.96,306.58,24.19,301.26,20.69 M316.39,19.69c-0.23-0.08-0.56-0.17-0.79-0.25c3.86,1.08,8.96,2.73,12.78,3.92
		c-3.06-0.98-5.05-1.54-7.71-2.23C319.29,20.64,318.27,20.27,316.39,19.69 M281.6,12.74c-0.23-0.04-0.56-0.1-0.79-0.13
		c1.56,0.17,2.84,0.33,4.79,0.58c5.5,0.86,12.8,2.23,18.26,3.32c4.32,1.08,7.5,2.25,9.01,2.83c-4.59-0.92-10.49-2.02-19.51-3
		C291.71,15.62,287.36,13.72,281.6,12.74 M263.05,11.39c16.11,1.81,16.11,1.81,20.78,4.09c-4.63-0.31-7.65-0.44-12.4-0.58
		c1.54,1,3.06,2.19,4.57,3.57c15.22,0.52,15.22,0.52,23.6,9.82c-5.9-0.38-9.74-0.56-15.78-0.71c1.42,2.04,2.83,4.25,4.19,6.63
		c6.5,0.23,10.63,0.44,16.99,0.92c3.46,4.9,5.57,8.38,8.73,14.28c-6.98-0.44-11.51-0.65-18.66-0.83c1.27,3,2.5,6.15,3.69,9.49
		c7.53,0.27,12.32,0.54,19.66,1.08c2.94,6.8,4.63,11.26,7.27,19.1c-7.82-0.5-12.9-0.71-20.91-0.9c1.06,3.9,2.08,7.94,3.04,12.15
		c8.28,0.31,13.53,0.6,21.6,1.21c2.27,8.42,3.71,14.61,5.52,23.6c-8.36-0.52-13.8-0.75-22.37-0.96c0.81,4.73,1.56,9.61,2.27,14.63
		c8.73,0.33,14.26,0.65,22.76,1.31c0.02,0.08,0.02,0.13,0.04,0.21c0.02,0.08,0.02,0.13,0.04,0.21c0.02,0.08,0.02,0.13,0.04,0.21
		c0.02,0.08,0.02,0.13,0.04,0.21c0.02,0.08,0.02,0.13,0.04,0.21c0.02,0.08,0.02,0.13,0.04,0.21c0.02,0.08,0.02,0.13,0.04,0.21
		c0.02,0.08,0.02,0.13,0.04,0.21c1.46,9.48,2.29,15.82,3.34,26.08c-8.65-0.54-14.26-0.77-23.1-0.96c0.5,5.48,0.96,10.97,1.33,16.51
		c8.88,0.35,14.51,0.67,23.18,1.35c0.5,7.8,0.75,12.84,1,20.76c5.29,0.38,10.51,0.86,15.7,1.42c-0.02-7.78-0.13-12.78-0.46-20.57
		c9.17,1.11,21.62,2.79,36.77,5.98c0.31,7.69,0.37,12.42,0.29,20.28c4.46,0.92,8.78,1.92,12.93,3c0.27-7.73,0.29-12.44,0.13-20.12
		c11.69,3.11,18.62,5.4,28.56,9.36c0.15,7.61,0.1,12.28-0.27,19.99c3.36,1.36,6.55,2.79,9.57,4.27c0.48-7.63,0.62-12.26,0.58-19.8
		c8.51,4.31,13.3,7.27,19.72,12.2c0.04,7.53-0.13,12.13-0.65,19.66c2.15,1.71,4.15,3.46,5.96,5.25c0.62-7.48,0.83-12.03,0.85-19.47
		c11.28,11.59,11.28,11.59,9.36,33.71c0.88,1.96,1.58,3.96,2.09,5.98c0.67-7.3,0.9-12.01,0.96-19.35c0.75,3.4,0.86,4.27,1,7.75v0.38
		c-0.06-6.9-0.71-16.11-1.11-22.99c-1.6-15.26-1.92-16.68-7.5-40.28c-4.19-14.57-4.94-16.32-14.11-37.63
		c-6.75-13.82-7.76-15.38-20.24-34.42c-9.53-13.07-11.42-15.07-26.04-30.67c-13.03-12.44-15.91-14.57-31.85-26.39
		c-15.89-10.22-20.18-12.74-38.52-21.51c-30.69-13.18-52.87-16.22-67.54-18.22c-5.8-0.65-6.23-0.67-16.87-1.31l-2.94-0.1
		C260.96,11.08,261.99,11.2,263.05,11.39"></path>
	<path fill="#0E512F" d="M243.49,159.58c-0.38,0.04-0.88,0.1-1.27,0.13c-0.79-8.99-1.6-17.99-2.36-26.98
		c-0.02-0.1-0.02-0.21-0.04-0.31c-0.02-0.1-0.02-0.21-0.04-0.31c-0.02-0.1-0.02-0.21-0.04-0.31c-0.02-0.1-0.02-0.21-0.04-0.31
		c-0.02-0.1-0.02-0.21-0.04-0.31c-0.02-0.1-0.02-0.21-0.04-0.31c-0.02-0.1-0.02-0.21-0.04-0.31s-0.02-0.21-0.04-0.31
		c14.45-1.29,26.18-1.98,40.48-2.38c0.02,0.1,1.4,10.4,3.31,28.6C278.41,156.71,263.17,157.37,243.49,159.58 M186.04,168.97
		c-0.19,0.04-0.42,0.1-0.62,0.13c-1.25-13.38-1.63-20.01-2.31-31.02c11.53-2.13,22.6-3.96,39.13-5.98c0,0.1,1.08,12.03,3,29.83
		C207.49,164.53,196.13,166.84,186.04,168.97 M239.64,116.72c-0.37,0.04-0.85,0.1-1.23,0.13c-0.75-8.36-1.5-16.74-2.25-25.1
		c13.57-1.21,24.68-1.88,38.32-2.29c1.15,6.86,2.02,12.26,3.75,24.29C273.45,113.95,258.82,114.58,239.64,116.72 M183.16,125.81
		c-0.17,0.04-0.4,0.08-0.58,0.12c-0.44-12.61-0.38-20.39-0.29-26.7c11.26-2.15,23.72-4.07,37-5.71c0.88,14.07,1.56,22.08,1.85,25.5
		C207.51,121.04,194.73,123.33,183.16,125.81 M236.32,80.41c-0.35,0.04-0.81,0.1-1.13,0.13c-0.62-7.07-0.62-7.07-1.77-20.37
		c12.34-1.11,22.43-1.73,34.83-2.11c1.54,6.57,2.75,12.26,4.15,19.64C267.91,77.89,254.31,78.45,236.32,80.41 M183.1,88.9
		c-0.15,0.04-0.37,0.08-0.52,0.12c0.38-8.42,0.86-14.78,1.69-21.95c8.67-1.61,18.72-3.36,33.56-5.23c0.19,6.69,0.42,12.7,0.83,20.8
		C205.89,84.48,195.59,86.29,183.1,88.9 M233.68,51.27c-0.31,0.04-0.71,0.08-1.02,0.12c-0.27-3.31-0.71-8.5-1.23-15.28
		c10.71-0.98,19.41-1.54,30.02-1.86c1.58,4.57,2.88,8.82,4.46,14.65C261.88,49.04,249.6,49.54,233.68,51.27 M185.83,58.83
		c-0.13,0.04-0.33,0.08-0.46,0.1c1.04-6.57,2.08-11.44,3.54-16.8c10.19-1.92,18.55-3.25,28.89-4.54c-0.15,4.92-0.19,9.46-0.13,15.68
		C213.45,53.87,200.63,55.69,185.83,58.83 M230.22,20.58c-0.02-0.15-0.02-0.35-0.04-0.5c8.28-0.79,16.05-1.29,24.37-1.56
		c1.61,2.69,2.92,5.4,4.52,9.3c-9.9,0.4-18.05,1.02-28.12,2.08C230.65,26.13,230.4,23,230.22,20.58 M195.51,25.6
		c0.1-0.17,0.25-0.4,0.37-0.58c10.97-2.15,20.32-3.34,23.39-3.73c-0.52,2.98-0.85,5.94-1.17,10.21c-9.74,1.36-17.66,2.75-27.37,4.75
		C191.34,34.47,192.96,29.88,195.51,25.6 M229.84,12.76c0-0.04,0-0.1,0-0.13c10.32-1.02,17.7-1.19,17.74-1.19
		c0.02,0,1.83,0.38,4.56,3.59c-7.8,0.31-14.22,0.77-22.16,1.6C229.92,15.85,229.8,13.78,229.84,12.76 M204.68,16.49
		c0.9-0.42,9.49-1.92,17.39-2.98c-0.83,0.85-1.4,2.09-2.04,4.32c-7.73,1.08-14.2,2.17-21.64,3.69
		C199.22,20.56,201.41,18,204.68,16.49 M22.71,274.66c0.04-25.89,38.9-64.67,148.3-88.83c1.13,8.48,1.92,13.72,3.36,22.45
		c5.02-1.17,10.09-2.27,15.24-3.31c-2.61-19.1-2.61-19.1-1.54-22.54c17.84-3.29,31.98-5,38.77-5.82c0.79,6.9,1.75,15.03,2.56,21.78
		c5.36-0.69,10.74-1.33,16.16-1.88c-0.65-7.21-1.33-14.41-1.98-21.62c15.57-1.35,25.62-1.92,41.36-2.4
		c0.71,7.86,1.15,13.22,1.75,21.22c5.44-0.17,10.88-0.29,16.3-0.31c-0.37-7.94-0.67-13.26-1.19-21.1
		c6.71,0.04,10.97,0.12,17.57,0.35c-0.38-5.54-0.83-11.05-1.33-16.51c-6.67-0.12-10.74-0.13-17.47-0.06
		c-0.48-5.38-1.36-15.38-2.92-28.35c6.52,0.04,10.69,0.12,17.14,0.33c-0.71-5.02-1.46-9.9-2.27-14.63
		c-6.4-0.12-10.34-0.13-16.86-0.08c-0.85-5.79-1.94-12.9-4.13-24.08c6.19,0.04,10.13,0.1,16.24,0.31
		c-0.96-4.21-1.98-8.25-3.04-12.15c-5.92-0.12-9.74-0.13-15.72-0.1c-1.83-7.9-3.04-12.63-5.04-19.47c5.63,0.02,9.21,0.1,14.76,0.27
		c-1.19-3.32-2.42-6.5-3.69-9.49c-5.32-0.12-8.61-0.13-14.03-0.1c-2.08-5.98-3.48-9.49-5.73-14.49c4.84,0.02,7.94,0.08,12.72,0.21
		c-1.36-2.38-2.77-4.59-4.19-6.63c-5.29-0.1-6.5-0.12-11.84-0.1c-2.88-4.96-4.17-6.55-6.32-9.19c4.61,0.02,5.77,0.04,10.34,0.15
		c-1.5-1.38-3.04-2.58-4.57-3.57c-4.86-0.1-4.86-0.1-15.93-3.61c3.29,0,4.29,0.02,7.55,0.1c-1.04-0.21-2.09-0.33-3.13-0.35
		c-3.61-0.06-8.42-0.06-12.03-0.02c-4.67,0.12-4.84,0.12-13.95,0.75c-4.54,0.38-4.54,0.38-13.61,1.56
		c-4.63,0.67-4.63,0.67-13.86,2.42c-4.96,1.02-4.96,1.02-14.72,3.54c-3.21,0.9-7.46,2.21-10.63,3.19
		c6.69-2.13,10.74-3.19,16.82-4.65c-22.56,9.8-46.74,15.76-68,28.64l-1.02,0.63c-2.15,1.42-5.02,3.32-7.17,4.75
		c15.84-10.34,36.75-18.41,63.94-24.7c-2.94,3.77-4.67,6.65-7.15,11.8c-42.13,10.34-73.52,25.12-93.29,43.9l-1.75,1.81
		c-1.1,1.21-2.58,2.81-3.67,4.02c18.07-18.66,50.47-33.42,96.29-43.9c-2.13,5.94-3.34,10.17-4.96,17.36
		c-34.73,8.57-96.41,28.41-119.35,65.08l-0.15,0.27c-0.44,0.77-1.02,1.79-1.44,2.58c15.78-24.85,58.2-46.17,119.45-59.97
		c-1.29,7.94-1.94,13.4-2.65,22.51c-74.38,18.45-123.93,48.24-135.98,81.7l-0.27,0.85c-0.1,0.35-0.23,0.81-0.33,1.13
		c10.92-29.54,61.75-57.12,135.98-73.78c-0.44,11.03-0.38,18.85-0.15,27.22C79.49,151.48,25.19,187.62,21.04,226.4v0.02
		c-0.02,0.17-0.02,0.38-0.04,0.56c3.84-33.73,59.68-66.52,145.74-85.57c0.67,13.24,2.17,26.81,2.65,31.27c0,0.06,0.02,0.1,0.02,0.15
		C78.97,195.63,22.75,234.65,22.71,274.66"></path>
	<path fill="#0E512F" d="M274.37,458.65c3.61-0.83,9.3-2.21,16.84-4.5l0,0l0,0l0,0l0,0l0,0l0,0l0,0l0,0
		c0.5,0.42,0.81,0.81,1.04,1.29C286.21,456.79,280.5,457.79,274.37,458.65 M274.37,458.65c5.07-1.79,9.78-3.67,14.84-5.9
		c0.77,0.4,1.29,0.75,1.79,1.21C285.37,455.77,280.08,457.27,274.37,458.65 M274.37,458.65c4.02-2.15,7.78-4.38,11.82-7l0,0
		c1.06,0.29,1.85,0.56,2.69,0.94C283.96,454.89,279.35,456.81,274.37,458.65 M274.37,458.65c6.15-0.79,11.9-1.73,18.05-2.94
		c0.19,0.52,0.25,0.96,0.15,1.52C286.35,457.92,280.58,458.38,274.37,458.65 M274.37,458.65c6.05-0.19,12.07-1.04,18.12-1.15
		c-0.06,0.17-0.21,0.69-0.77,1.56C287.98,459.11,282.1,459.13,274.37,458.65 M274.37,458.65c3.54-3.17,6.23-6,7.94-7.82
		c1.61,0.25,3.44,0.71,3.46,0.71C281.89,454.19,278.27,456.44,274.37,458.65 M308.87,448.02
		C308.85,448.02,308.85,448.02,308.87,448.02c9.24-3.67,16.61-7.02,25.37-11.59l0.02,0.02l0.02,0.02l0.02,0.02l0.02,0.02l0.02,0.02
		l0.02,0.02l0.02,0.02l0.02,0.02c1.63,1.54,2.59,2.86,3.36,4.56c-9.38,3.96-17.2,6.77-27.04,9.71c-0.37-1-0.88-1.79-1.75-2.71
		c0,0,0,0-0.02-0.02c0,0,0,0-0.02-0.02c0,0,0,0-0.02-0.02c0,0,0,0-0.02-0.02C308.89,448.06,308.89,448.06,308.87,448.02
		C308.89,448.04,308.89,448.04,308.87,448.02C308.87,448.04,308.87,448.02,308.87,448.02 M304.57,445.37
		c-0.04-0.02-0.1-0.04-0.15-0.06c8.19-4.44,14.68-8.44,22.43-13.78c2.73,1.35,4.59,2.52,6.44,4.07
		c-8.65,4.75-15.88,8.25-24.95,12.01C307.87,447.22,306.74,446.33,304.57,445.37 M298.24,443.28c-0.06-0.02-0.13-0.04-0.19-0.04
		c6.53-5.07,11.72-9.59,17.87-15.55c3.69,0.94,6.42,1.85,9.4,3.13c-7.5,5.5-13.78,9.61-21.68,14.15
		C303.03,444.72,301.15,443.95,298.24,443.28 M310.87,451.41c0-0.02-0.02-0.06-0.02-0.1c9.94-2.81,17.84-5.48,27.25-9.24
		c0.56,1.81,0.6,3.32,0.19,5.19c-9.53,3.06-17.51,5.13-27.54,7.13C310.97,453.73,311.18,452.71,310.87,451.41 M310.56,454.94
		c0-0.02,0-0.02,0.02-0.04c10.01-1.83,17.95-3.75,27.43-6.61c0,0.02-0.02,0.04-0.02,0.06s-0.02,0.04-0.02,0.06
		c0,0.02-0.02,0.04-0.02,0.06c0,0.02-0.02,0.04-0.02,0.06c0,0.02-0.02,0.04-0.02,0.06c0,0.02-0.02,0.04-0.02,0.06
		c0,0.02-0.02,0.04-0.02,0.06c0,0.02-0.02,0.04-0.02,0.06c-1.06,2.73-3.11,5.02-3.13,5.02c-0.08,0.02-10.34,2.73-26.39,4.36
		C308.7,457.75,309.89,456.6,310.56,454.94 M290.06,442.1c-0.08,0-0.19-0.02-0.27-0.02c4.44-5.63,7.8-10.4,11.99-17.01
		c4.09,0.5,8.17,1.21,12.09,2.09c-7.21,7.57-12.57,12.26-16.87,15.84C295.46,442.7,293.71,442.35,290.06,442.1 M350.33,427.29
		C350.33,427.29,350.31,427.27,350.33,427.29c7.84-4.9,15.16-10.55,22.83-15.74c2.61,2.5,4.19,4.65,5.46,7.42
		c-8.38,5.57-15.38,9.71-24.18,14.3C352.98,429.55,350.44,427.38,350.33,427.29 M341.03,421.29c-0.1-0.04-0.21-0.1-0.31-0.13
		c7.25-5.84,13.07-11.03,20.1-17.89c4.32,2.11,7.32,4,10.38,6.52c-7.69,6.28-14.13,11.01-22.22,16.34
		C348.18,425.46,345.66,423.46,341.03,421.29 M327.11,416.56c-0.12-0.04-0.29-0.08-0.42-0.1c5.82-6.5,10.46-12.17,15.97-19.58
		c5.98,1.54,10.36,3,15.11,5c-6.63,6.98-12.19,12.3-19.18,18.34C337.32,419.71,333.42,418.1,327.11,416.56 M354.94,434.78
		c-0.02-0.06-0.04-0.13-0.06-0.19c8.88-4.38,15.95-8.36,24.43-13.72c0.81,2.9,0.86,5.3,0.19,8.32c-8.55,4.79-15.7,8.25-24.66,11.99
		C355.06,440.35,355.71,437.86,354.94,434.78 M354.35,442.64c0-0.02,0.02-0.04,0.02-0.06c9.23-3.65,11.26-4.67,24.49-11.3
		c-1.88,4.98-5.38,8.63-5.42,8.65c-0.06,0.04-9.19,4.79-23.64,9.57C350.62,448.64,353.08,445.99,354.35,442.64 M309.1,413.74
		c-0.17-0.02-0.4-0.04-0.58-0.06c3.84-6.94,6.92-13.03,10.63-21.05c8.34,0.98,15.18,2.33,19.43,3.27
		c-5.04,7.51-9.3,13.28-14.72,19.93C321.08,415.27,316.91,414.43,309.1,413.74 M387.27,399.72c-0.02-0.02-0.02-0.02-0.04-0.04
		c7.38-6.63,12.88-12.07,19.6-19.37c3.44,3.33,5.54,6.19,7.21,9.84c-6.96,6.77-13.17,12.2-20.76,18.18
		C391.92,405.14,390.19,402.65,387.27,399.72 M373.45,390.69c-0.13-0.06-0.31-0.13-0.44-0.21c6.5-7.3,11.34-13.26,17.28-21.28
		c5.63,2.77,9.57,5.23,13.65,8.5c-6.4,7.4-12.09,13.38-19.01,19.97C383.69,396.71,380.02,393.81,373.45,390.69 M352.71,383.52
		c-0.17-0.04-0.42-0.1-0.6-0.15c5.15-7.86,8.99-14.26,13.67-22.81c7.78,2.02,13.53,3.92,19.8,6.53c-5.46,8-10.34,14.51-16.3,21.76
		C367.43,388.1,361.78,385.79,352.71,383.52 M394.15,410.97c-0.02-0.1-0.06-0.21-0.08-0.29c7.88-5.92,13.78-10.86,21.01-17.59
		c1.69,6.36,0.21,10.86,0.19,10.88c-0.04,0.04-8.11,7.34-21.22,16.22C394.36,419,395.26,415.41,394.15,410.97 M393.23,422.77
		c0-0.02,0.02-0.04,0.02-0.08c7.84-5.11,13.93-9.63,21.06-15.59c0,0.02-0.02,0.04-0.02,0.08c0,0.02-0.02,0.04-0.02,0.08
		c0,0.02-0.02,0.04-0.02,0.08c0,0.02-0.02,0.04-0.02,0.08c0,0.02-0.02,0.04-0.02,0.08c0,0.02-0.02,0.04-0.02,0.08
		c0,0.02-0.02,0.04-0.02,0.08c0,0.02-0.02,0.04-0.02,0.08c-2.83,6.86-4.71,11.4-27.33,25.06c2.08-2.31,4.46-5.25,6.27-9.46
		c0-0.02,0.02-0.04,0.02-0.08c0-0.02,0.02-0.04,0.02-0.08c0-0.02,0.02-0.04,0.02-0.08c0-0.02,0.02-0.04,0.02-0.08
		c0-0.02,0.02-0.04,0.02-0.08c0-0.02,0.02-0.04,0.02-0.08S393.23,422.79,393.23,422.77 M325.84,379.16
		c-0.25-0.02-0.6-0.06-0.85-0.08c3.96-9.76,6.44-16.76,8.96-24.27c8.78,1.04,17.36,2.46,25.49,4.23
		c-2.73,5.63-6.59,13.38-12.32,23.2C343.35,381.49,337.07,380.22,325.84,379.16 M419.02,366.71c-0.1-0.1-0.23-0.23-0.33-0.33
		c6.15-7.8,10.76-14.26,15.89-22.28c4.06,3.96,6.52,7.36,8.53,11.69c-5.48,7.82-10.36,14.01-16.82,21.43
		C425.73,375.83,423.92,371.64,419.02,366.71 M401.03,354.69c-0.15-0.08-0.38-0.17-0.54-0.25c3.56-5.55,8.38-13.28,13.97-23.95
		c6.73,3.33,11.42,6.25,16.22,10.09c-5,8.3-9.44,14.93-15.32,22.87C413.85,362.28,409.31,358.67,401.03,354.69 M374.37,345.41
		c-0.23-0.06-0.52-0.13-0.75-0.19c4.31-9.07,7.38-16.16,10.96-25.31c9.11,2.36,15.93,4.61,23.52,7.73
		c-5.19,10.86-9.49,18.45-13.01,24.43C392.75,351.12,385.54,348.2,374.37,345.41 M427.55,380.95c-0.02-0.12-0.06-0.25-0.1-0.37
		c6.57-7.21,11.51-13.24,17.07-20.85c1.94,7.53,0.21,12.9,0.19,12.93c-0.02,0.04-6.09,8.44-17.22,19.83
		C427.86,391.02,428.92,386.52,427.55,380.95 M426.32,396.19c0-0.02,0.02-0.04,0.02-0.06c6.57-6.57,11.53-12.15,17.07-19.24
		c0,0.02-0.02,0.04-0.02,0.06c0,0.02-0.02,0.04-0.02,0.06c0,0.02-0.02,0.04-0.02,0.06c0,0.02-0.02,0.04-0.02,0.06
		s-0.02,0.04-0.02,0.06c0,0.02-0.02,0.04-0.02,0.06c0,0.02-0.02,0.04-0.02,0.06c0,0.02-0.02,0.04-0.02,0.06
		c-1.54,3.69-3.4,6.82-6.27,10.49l-4.52,5.57l-3.92,4.57c-3.71,4.17-6.19,6.77-10.22,10.67c3.65-4.15,6.07-7.86,7.84-12.01
		c0-0.02,0.02-0.04,0.02-0.06c0-0.02,0.02-0.04,0.02-0.06c0-0.02,0.02-0.04,0.02-0.06s0.02-0.04,0.02-0.06
		c0-0.02,0.02-0.04,0.02-0.06c0-0.02,0.02-0.04,0.02-0.06C426.3,396.23,426.3,396.21,426.32,396.19 M339.8,339.68
		c-0.33-0.04-0.75-0.08-1.06-0.1c3.19-10.92,5.11-18.57,7.02-26.68c3.92,0.46,15.84,1.86,30.29,4.98
		c-3.84,11.47-7.03,19.43-9.65,25.7C362.21,342.74,353.5,340.97,339.8,339.68 M444.2,328.82c-0.12-0.12-0.27-0.27-0.37-0.37
		c4.61-8.55,8.01-15.66,11.69-24.52c4.46,4.44,7.21,8.21,9.46,13.01c-3.88,8.73-7.46,15.68-12.32,23.99
		C451.94,339.36,449.83,334.51,444.2,328.82 M422.98,314.54c-0.19-0.1-0.44-0.21-0.62-0.31c4.06-9.07,7.02-16.59,10.21-25.89
		c7.44,3.69,12.67,6.96,18.07,11.22c-3.5,9.05-6.73,16.32-11.15,25.08C437.72,323.29,432.4,319.1,422.98,314.54 M391.48,303.45
		c-0.25-0.06-0.6-0.15-0.85-0.21c3.15-9.53,5.44-17.36,7.88-27c10.21,2.67,17.8,5.15,26.2,8.59c-2.92,9.51-5.61,17.14-9.32,26.33
		C412.64,310.07,404.34,306.72,391.48,303.45 M454.25,345.76c-0.04-0.13-0.08-0.29-0.1-0.42c4.94-8.11,8.59-14.91,12.55-23.49
		c2.67,10.76,2,14.49-12.47,37.23C454.61,357.36,455.81,352.18,454.25,345.76 M452.73,363.84c0-0.02,0.02-0.04,0.02-0.06
		c4.94-7.65,8.57-14.11,12.51-22.29c-0.46,1.17-0.96,2.23-1.13,2.58c-2.34,4.9-5.88,11.22-8.4,16.01l-7.19,11.69
		C449.25,370.65,451.17,367.7,452.73,363.84 M350.54,296.57c-0.37-0.04-0.86-0.08-1.23-0.12c1.98-9.96,3.38-18.14,4.84-28.27
		c4.36,0.52,17.64,2.09,33.71,5.54c-2.06,9.9-4,17.84-6.67,27.39C376.04,300.07,366.49,298.15,350.54,296.57 M462.17,287.42
		c-0.12-0.12-0.29-0.29-0.4-0.4c2.98-9.21,4.98-16.78,6.92-26.12c7.96,7.94,10.05,13.84,10.05,13.88c0,0.04-2.09,10.76-7.3,25.87
		C470.62,298.92,468.28,293.65,462.17,287.42 M438.53,271.4c-0.21-0.1-0.48-0.23-0.67-0.33c2.58-9.61,4.29-17.47,5.92-27.1
		c7.86,3.9,13.43,7.36,19.26,11.94c-1.83,9.49-3.71,17.16-6.52,26.52C454.59,280.93,448.77,276.39,438.53,271.4 M403.37,258.94
		c-0.27-0.08-0.65-0.17-0.92-0.23c1.92-9.86,3.19-17.97,4.36-27.98c10.86,2.86,18.95,5.52,27.91,9.15
		c-1.44,9.8-2.96,17.76-5.27,27.48C426.5,266.17,417.5,262.55,403.37,258.94 M473.33,306.39c-0.04-0.13-0.15-0.33-0.12-0.46
		c0.98-3.15,2.19-6.25,3.17-9.4c0.15-0.48,0.35-1.11,0.48-1.6c2.06-6.8,3.25-12.03,3.82-14.55c1.35,5.55,3,12.45-7.36,40.53
		C473.76,319.08,475.01,313.43,473.33,306.39 M357.65,251.16c-0.4-0.04-0.94-0.1-1.35-0.13c1.1-10.34,1.77-18.76,2.31-29.04
		c4.67,0.56,18.87,2.25,35.94,5.86c-0.9,10.09-1.92,18.3-3.48,28.29C385.02,254.92,374.91,252.89,357.65,251.16 M321.1,219.16
		c8.69,0.35,14.18,0.67,22.6,1.35c-0.23,11.05-0.52,18.18-1.19,29.39c-8.19-0.5-13.47-0.73-21.8-0.9
		c-0.17,5.55-0.4,11.11-0.69,16.62c8.09,0.33,13.24,0.63,21.16,1.27c-1.04,10.96-1.85,17.91-3.32,28.64
		c-7.42-0.46-12.26-0.65-19.91-0.83c-0.48,5.38-1.02,10.71-1.6,15.97c7.3,0.29,11.92,0.58,18.97,1.17
		c-1.67,9.69-3.23,17.51-5.38,27.02c-6.42-0.4-10.59-0.58-17.2-0.69c-0.77,5.04-1.58,9.97-2.44,14.84c6.11,0.25,9.98,0.5,15.91,1.02
		c-1.42,5.32-3.71,13.67-7.28,24.58c-5.11-0.31-8.44-0.44-13.68-0.54c-1.04,4.52-2.09,8.94-3.23,13.22
		c4.73,0.21,7.55,0.4,12.11,0.81c-3.9,10.21-6.73,16.36-9.07,21.31c-4.11-0.23-5.25-0.27-9.42-0.35c-1.27,3.84-2.58,7.57-3.92,11.15
		c3.36,0.17,4.21,0.25,7.53,0.56c-9.57,17.16-9.57,17.16-15.11,17.11c-1.48,3.04-3.02,5.9-4.02,8.63c0.4,0.15,0.94,0.37,1.35,0.52
		c-3.36,3.9-5.07,5.57-7.03,7.51l-0.06,0.06c5.59,0.42,11.26-0.48,16.78,1.11l-0.1,0.1c5.21,0.15,10.34,0.1,15.63-0.33
		c2.33-1.94,26.33-4.25,26.56-4.27c-0.33,0.31-0.77,0.71-1.1,1.02l-0.37,0.33c4.75-0.94,9.4-2.08,13.97-3.38
		c3.31-2.77,4.09-3.42,25.12-10.63c-0.56,0.5-1.29,1.17-1.85,1.67l-0.62,0.52c4.19-1.94,8.28-4.04,12.97-6.94
		c6.82-5.92,14.78-10.24,22.04-15.57c-0.75,0.69-1.77,1.6-2.52,2.27l-0.85,0.71c0.71-0.56,1.4-1.13,2.11-1.71
		c3.86-3.21,8.74-7.8,12.49-11.13l1.19-1.15c5.15-5.17,11.69-12.4,16.57-17.84c10.47-12.88,11.69-14.82,23.27-33.35
		c7.57-13.47,8.26-15.18,16.87-36.19c5.04-14.15,5.34-15.51,10.4-38.54c1.52-9.78,0.65-19.7,1.67-29.52
		c-0.5-2.02-1.21-4.02-2.09-5.98c-0.33,3.34-0.42,4.27-0.85,7.59c-2.69-5.61-5.15-9.09-10.15-14.28c0.4-3.38,0.48-4.15,0.79-7.55
		c-1.81-1.79-3.79-3.54-5.96-5.25c-0.27,3.36-0.37,4.29-0.71,7.65c-6.32-4.8-11.07-7.71-19.57-11.92c0.33-3.5,0.4-4.31,0.65-7.8
		c-3.02-1.48-6.21-2.9-9.57-4.27c-0.17,3.38-0.25,4.5-0.5,7.9c-9.82-3.86-16.7-6.07-28.33-9.09c0.21-3.56,0.25-4.46,0.4-8.03
		c-4.15-1.06-8.48-2.06-12.93-3c-0.06,3.79-0.1,4.56-0.21,8.13c-8.9-1.79-18.39-3.54-36.46-5.38c0.06-3.57,0.06-4.82,0.06-8.44
		c-5.19-0.56-10.42-1.04-15.7-1.42c0.1,3.59,0.13,4.96,0.19,8.59c-8.59-0.52-14.16-0.75-22.93-0.94
		C320.96,207.95,321.06,213.54,321.1,219.16"></path>
	<g>
		<g>
			<g>
				<path fill="#0E512F" d="M47.45,140.93h12.51c13.88,0,26.73,3.65,38.21,10.82c11.51,7.21,19.89,16.82,24.89,28.56l99.75,196.44
					L324,179.37c5.02-11.76,13.32-21.24,24.72-28.14c11.3-6.84,23.85-10.32,37.36-10.32h12.53L222.77,486.98L47.45,140.93z"></path>
				<path fill="#FFFFFF" d="M386.06,148.62L222.75,470.01L59.96,148.62c12.47,0,23.85,3.21,34.13,9.65
					c10.28,6.44,17.61,14.88,21.99,25.29l106.69,210.13l108.21-211.05c4.38-10.42,11.63-18.7,21.74-24.83
					C362.8,151.68,373.93,148.62,386.06,148.62 M411.12,133.24h-25.06c-14.91,0-28.83,3.84-41.34,11.42
					c-12.72,7.71-22.04,18.3-27.7,31.44l-94.2,183.74l-92.81-182.78c-5.65-13.11-14.99-23.81-27.77-31.83
					c-12.72-7.96-26.95-11.99-42.28-11.99H34.93l11.3,22.33l162.81,321.39l13.7,27.04l13.72-27.02L399.78,155.6L411.12,133.24
					L411.12,133.24z"></path>
			</g>
		</g>
	</g>
	
		<ellipse transform="matrix(0.9971 -0.0759 0.0759 0.9971 -33.9757 22.5903)" fill="#0E512F" cx="280.21" cy="458.28" rx="33.19" ry="11.61"></ellipse>
</g><g>
</g><g>
</g><g>
</g><g>
</g><g>
</g><g>
</g><g>
</g><g>
</g><g>
</g><g>
</g><g>
</g><g>
</g><g>
</g><g>
</g><g>
</g></svg>